<?xml version="1.0" encoding="UTF-8" standalone="no"?>
<!DOCTYPE svg PUBLIC "-//W3C//DTD SVG 1.1//EN" "http://www.w3.org/Graphics/SVG/1.1/DTD/svg11.dtd">
<svg width="100%" height="100%" viewBox="0 0 6001 1000" version="1.1" xmlns="http://www.w3.org/2000/svg"
     xmlns:xlink="http://www.w3.org/1999/xlink" xml:space="preserve" xmlns:serif="http://www.serif.com/"
     style="fill-rule:evenodd;clip-rule:evenodd;stroke-linejoin:round;stroke-miterlimit:2;"
     xmlns:xsi="http://www.w3.org/2001/XMLSchema-instance" xsi:schemaLocation="http://www.serif.com/ ">
    <g transform="matrix(1,0,0,1,0,-2400)">
        <g id="logo" transform="matrix(6,0,0,1,0.713889,2400)">
            <rect x="0" y="0" width="1000" height="1000" style="fill:none;"/>
            <g id="logo1" serif:id="logo">
                <g id="icon" transform="matrix(1.49976e-17,-1.46958,0.244929,8.99856e-17,-39.1314,1234.79)">
                    <g transform="matrix(0.865106,0,0,0.865106,-2882.16,238.441)">
                        <g id="circle">
                            <path d="M3909.53,-90.943C3692.47,-90.943 3516.24,85.283 3516.24,302.343C3516.24,519.404 3692.47,695.629 3909.53,695.629C4126.59,695.629 4302.81,519.404 4302.81,302.343C4302.81,85.283 4126.59,-90.943 3909.53,-90.943ZM3909.53,-33.146C4094.69,-33.146 4245.02,117.181 4245.02,302.343C4245.02,487.505 4094.69,637.833 3909.53,637.833C3724.37,637.833 3574.04,487.505 3574.04,302.343C3574.04,117.181 3724.37,-33.146 3909.53,-33.146Z"
                                  style="fill:rgb(62,185,131);"/>
                        </g>
                    </g>
                    <g id="waves" transform="matrix(1,0,0,1,-0.296054,-1.00735)">
                        <g transform="matrix(1,0,0,1,-3393.89,0)">
                            <path d="M3741.14,439.225C3741.14,439.225 3755.3,309.985 3911.79,317.806C3947.57,319.594 3991,335.399 4036.59,386.012C4127.53,486.974 4201.59,378.419 4201.59,378.419C4201.59,378.419 4180.74,502.103 4057.92,502.015C3991.05,501.967 3967.73,488.01 3930.93,458.55C3918.71,448.768 3890.97,416.852 3874.14,406.39C3844.21,387.788 3818.54,389.663 3796.38,395.136C3774.21,400.608 3741.14,439.225 3741.14,439.225Z"
                                  style="fill:rgb(62,185,131);"/>
                        </g>
                        <g transform="matrix(1,0,0,1,-3548.25,182.535)">
                            <path d="M3741.14,439.225C3741.14,439.225 3755.3,309.985 3911.79,317.806C3947.57,319.594 3991,335.399 4036.59,386.012C4127.53,486.974 4201.59,378.419 4201.59,378.419C4201.59,378.419 4180.74,502.103 4057.92,502.015C3991.05,501.967 3967.73,488.01 3930.93,458.55C3918.71,448.768 3890.97,416.852 3874.14,406.39C3844.21,387.788 3818.54,389.663 3796.38,395.136C3774.21,400.608 3741.14,439.225 3741.14,439.225Z"
                                  style="fill:rgb(62,185,131);"/>
                        </g>
                    </g>
                </g>
                <g transform="matrix(0.165512,0,0,0.99307,-177.903,-2808.67)">
                    <g id="text">
                        <text x="2273.05px" y="3639.81px"
                              style="font-family:'ArialMT', 'Arial', sans-serif;font-size:875px;fill:rgb(52,73,94);">T<tspan
                                x="2710.55px 3197.18px " y="3639.81px 3639.81px ">ai</tspan>lwind V
                            <tspan x="6179.78px 6666.42px " y="3639.81px 3639.81px ">ue</tspan></text>
                    </g>
                </g>
            </g>
        </g>
    </g>
</svg>
