<?xml version="1.0" encoding="UTF-8" standalone="no"?><!DOCTYPE svg PUBLIC "-//W3C//DTD SVG 1.1//EN" "http://www.w3.org/Graphics/SVG/1.1/DTD/svg11.dtd"><svg width="100%" height="100%" viewBox="0 0 1441 241" version="1.1" xmlns="http://www.w3.org/2000/svg" xmlns:xlink="http://www.w3.org/1999/xlink" xml:space="preserve" xmlns:serif="http://www.serif.com/" style="fill-rule:evenodd;clip-rule:evenodd;stroke-linejoin:round;stroke-miterlimit:2;"><rect id="Circle-Logo-with-Text" serif:id="Circle Logo with Text" x="0.214" y="0.155" width="1440" height="240" style="fill:none;"/><g><path d="M338.839,198.905l0,-131.85l-44.55,0l0,-15.75l108,0l0,15.75l-44.55,0l0,131.85l-18.9,0Z" style="fill:#34495e;fill-rule:nonzero;"/><path d="M438.064,201.605c-9.15,0 -16.763,-2.7 -22.838,-8.1c-6.075,-5.4 -9.112,-13.05 -9.112,-22.95c0,-12 5.325,-21.188 15.975,-27.563c10.65,-6.375 27.675,-10.837 51.075,-13.387c0,-3.45 -0.338,-6.825 -1.013,-10.125c-0.675,-3.3 -1.837,-6.225 -3.487,-8.775c-1.65,-2.55 -3.938,-4.613 -6.863,-6.188c-2.925,-1.575 -6.637,-2.362 -11.137,-2.362c-6.3,0 -12.225,1.2 -17.775,3.6c-5.55,2.4 -10.5,5.1 -14.85,8.1l-7.2,-12.825c5.1,-3.3 11.325,-6.488 18.675,-9.563c7.35,-3.075 15.45,-4.612 24.3,-4.612c13.35,0 23.025,4.087 29.025,12.262c6,8.175 9,19.088 9,32.738l0,67.05l-15.3,0l-1.575,-13.05l-0.675,0c-5.25,4.35 -10.875,8.062 -16.875,11.137c-6,3.075 -12.45,4.613 -19.35,4.613Zm5.4,-14.85c5.25,0 10.2,-1.238 14.85,-3.713c4.65,-2.475 9.6,-6.112 14.85,-10.912l0,-30.375c-9.15,1.2 -16.838,2.625 -23.063,4.275c-6.225,1.65 -11.25,3.6 -15.075,5.85c-3.825,2.25 -6.6,4.837 -8.325,7.762c-1.725,2.925 -2.587,6.113 -2.587,9.563c0,6.3 1.875,10.8 5.625,13.5c3.75,2.7 8.325,4.05 13.725,4.05Z" style="fill:#34495e;fill-rule:nonzero;"/><path d="M528.514,198.905l0,-109.35l18.45,0l0,109.35l-18.45,0Zm9.45,-131.85c-3.6,0 -6.638,-1.125 -9.113,-3.375c-2.475,-2.25 -3.712,-5.1 -3.712,-8.55c0,-3.6 1.237,-6.488 3.712,-8.663c2.475,-2.175 5.513,-3.262 9.113,-3.262c3.6,0 6.637,1.087 9.112,3.262c2.475,2.175 3.713,5.063 3.713,8.663c0,3.45 -1.238,6.3 -3.713,8.55c-2.475,2.25 -5.512,3.375 -9.112,3.375Z" style="fill:#34495e;fill-rule:nonzero;"/><path d="M605.689,201.605c-7.05,0 -12.075,-2.1 -15.075,-6.3c-3,-4.2 -4.5,-10.35 -4.5,-18.45l0,-138.15l18.45,0l0,139.5c0,3 0.525,5.1 1.575,6.3c1.05,1.2 2.25,1.8 3.6,1.8l1.687,0c0.525,0 1.313,-0.15 2.363,-0.45l2.475,13.95c-1.2,0.6 -2.625,1.05 -4.275,1.35c-1.65,0.3 -3.75,0.45 -6.3,0.45Z" style="fill:#34495e;fill-rule:nonzero;"/><path d="M663.064,198.905l-30.375,-109.35l18.9,0l16.2,63.225c1.2,5.25 2.325,10.35 3.375,15.3c1.05,4.95 2.1,9.975 3.15,15.075l0.9,0c1.2,-5.1 2.4,-10.163 3.6,-15.188c1.2,-5.025 2.475,-10.087 3.825,-15.187l16.875,-63.225l18,0l17.1,63.225c1.35,5.25 2.662,10.35 3.937,15.3c1.275,4.95 2.513,9.975 3.713,15.075l0.9,0c1.2,-5.1 2.325,-10.125 3.375,-15.075c1.05,-4.95 2.175,-10.05 3.375,-15.3l15.975,-63.225l17.55,0l-29.25,109.35l-22.5,0l-15.75,-58.725c-1.35,-5.25 -2.588,-10.425 -3.713,-15.525c-1.125,-5.1 -2.362,-10.425 -3.712,-15.975l-0.9,0c-1.2,5.55 -2.4,10.912 -3.6,16.087c-1.2,5.175 -2.55,10.388 -4.05,15.638l-15.3,58.5l-21.6,0Z" style="fill:#34495e;fill-rule:nonzero;"/><path d="M809.539,198.905l0,-109.35l18.45,0l0,109.35l-18.45,0Zm9.45,-131.85c-3.6,0 -6.638,-1.125 -9.113,-3.375c-2.475,-2.25 -3.712,-5.1 -3.712,-8.55c0,-3.6 1.237,-6.488 3.712,-8.663c2.475,-2.175 5.513,-3.262 9.113,-3.262c3.6,0 6.637,1.087 9.112,3.262c2.475,2.175 3.713,5.063 3.713,8.663c0,3.45 -1.238,6.3 -3.713,8.55c-2.475,2.25 -5.512,3.375 -9.112,3.375Z" style="fill:#34495e;fill-rule:nonzero;"/><path d="M867.139,198.905l0,-109.35l15.3,0l1.575,15.75l0.675,0c5.25,-5.25 10.762,-9.638 16.537,-13.163c5.775,-3.525 12.488,-5.287 20.138,-5.287c11.55,0 19.987,3.6 25.312,10.8c5.325,7.2 7.988,17.85 7.988,31.95l0,69.3l-18.45,0l0,-66.825c0,-10.35 -1.65,-17.813 -4.95,-22.388c-3.3,-4.575 -8.55,-6.862 -15.75,-6.862c-5.7,0 -10.725,1.425 -15.075,4.275c-4.35,2.85 -9.3,7.05 -14.85,12.6l0,79.2l-18.45,0Z" style="fill:#34495e;fill-rule:nonzero;"/><path d="M1029.81,201.605c-13.8,0 -24.788,-4.95 -32.963,-14.85c-8.175,-9.9 -12.262,-24 -12.262,-42.3c0,-8.85 1.312,-16.838 3.937,-23.963c2.625,-7.125 6.113,-13.162 10.463,-18.112c4.35,-4.95 9.375,-8.775 15.075,-11.475c5.7,-2.7 11.7,-4.05 18,-4.05c6.3,0 11.775,1.125 16.425,3.375c4.65,2.25 9.375,5.325 14.175,9.225l-0.9,-18.675l0,-42.075l18.675,0l0,160.2l-15.3,0l-1.575,-12.825l-0.675,0c-4.35,4.2 -9.338,7.837 -14.963,10.912c-5.625,3.075 -11.662,4.613 -18.112,4.613Zm4.05,-15.525c5.1,0 9.9,-1.238 14.4,-3.713c4.5,-2.475 9,-6.262 13.5,-11.362l0,-57.15c-4.65,-4.2 -9.113,-7.163 -13.388,-8.888c-4.275,-1.725 -8.662,-2.587 -13.162,-2.587c-4.35,0 -8.438,1.012 -12.263,3.037c-3.825,2.025 -7.162,4.875 -10.012,8.55c-2.85,3.675 -5.1,8.063 -6.75,13.163c-1.65,5.1 -2.475,10.8 -2.475,17.1c0,13.2 2.625,23.475 7.875,30.825c5.25,7.35 12.675,11.025 22.275,11.025Z" style="fill:#34495e;fill-rule:nonzero;"/><path d="M1148.39,198.905l-47.25,-147.6l20.025,0l23.625,79.65c2.7,8.85 5.062,17.025 7.087,24.525c2.025,7.5 4.463,15.6 7.313,24.3l0.9,0c2.7,-8.7 5.1,-16.8 7.2,-24.3c2.1,-7.5 4.425,-15.675 6.975,-24.525l23.625,-79.65l19.125,0l-46.8,147.6l-21.825,0Z" style="fill:#34495e;fill-rule:nonzero;"/><path d="M1262.91,201.605c-11.7,0 -20.213,-3.6 -25.538,-10.8c-5.325,-7.2 -7.987,-17.85 -7.987,-31.95l0,-69.3l18.675,0l0,66.825c0,10.35 1.612,17.812 4.837,22.387c3.225,4.575 8.438,6.863 15.638,6.863c5.7,0 10.725,-1.463 15.075,-4.388c4.35,-2.925 9.15,-7.612 14.4,-14.062l0,-77.625l18.45,0l0,109.35l-15.3,0l-1.575,-17.1l-0.675,0c-5.1,6 -10.463,10.8 -16.088,14.4c-5.625,3.6 -12.262,5.4 -19.912,5.4Z" style="fill:#34495e;fill-rule:nonzero;"/><path d="M1399.94,201.605c-7.35,0 -14.213,-1.313 -20.588,-3.938c-6.375,-2.625 -11.925,-6.375 -16.65,-11.25c-4.725,-4.875 -8.437,-10.837 -11.137,-17.887c-2.7,-7.05 -4.05,-15.075 -4.05,-24.075c0,-9 1.387,-17.063 4.162,-24.188c2.775,-7.125 6.45,-13.162 11.025,-18.112c4.575,-4.95 9.788,-8.738 15.638,-11.363c5.85,-2.625 11.925,-3.937 18.225,-3.937c6.9,0 13.087,1.2 18.562,3.6c5.475,2.4 10.05,5.85 13.725,10.35c3.675,4.5 6.488,9.9 8.438,16.2c1.95,6.3 2.925,13.35 2.925,21.15c0,1.95 -0.038,3.862 -0.113,5.737c-0.075,1.875 -0.262,3.488 -0.562,4.838l-73.8,0c0.75,11.7 4.387,20.962 10.912,27.787c6.525,6.825 15.038,10.238 25.538,10.238c5.25,0 10.087,-0.788 14.512,-2.363c4.425,-1.575 8.663,-3.637 12.713,-6.187l6.525,12.15c-4.8,3 -10.125,5.625 -15.975,7.875c-5.85,2.25 -12.525,3.375 -20.025,3.375Zm-34.425,-66.15l58.5,0c0,-11.1 -2.363,-19.538 -7.088,-25.313c-4.725,-5.775 -11.362,-8.662 -19.912,-8.662c-3.9,0 -7.613,0.75 -11.138,2.25c-3.525,1.5 -6.712,3.712 -9.562,6.637c-2.85,2.925 -5.213,6.488 -7.088,10.688c-1.875,4.2 -3.112,9 -3.712,14.4Z" style="fill:#34495e;fill-rule:nonzero;"/></g><g><g id="Circle"><path d="M0.214,120.155c0,66.229 53.77,120 120,120c66.23,0 120,-53.771 120,-120c0,-66.23 -53.77,-120 -120,-120c-66.23,0 -120,53.77 -120,120Zm17.635,0c0,-56.497 45.868,-102.365 102.365,-102.365c56.497,0 102.365,45.868 102.365,102.365c0,56.497 -45.868,102.365 -102.365,102.365c-56.497,0 -102.365,-45.868 -102.365,-102.365Z" style="fill:#3eb983;"/></g><g id="Waves"><path d="M98.423,174.134c0,0 -45.583,-4.994 -42.824,-60.189c0.631,-12.62 6.205,-27.936 24.056,-44.015c35.609,-32.075 -2.678,-58.196 -2.678,-58.196c0,0 43.623,7.354 43.592,50.671c-0.017,23.586 -4.939,31.81 -15.33,44.792c-3.45,4.31 -14.707,14.091 -18.397,20.028c-6.561,10.556 -5.899,19.609 -3.969,27.427c1.93,7.818 15.55,19.482 15.55,19.482Z" style="fill:#3eb983;"/><path d="M162.803,228.575c0,0 -45.583,-4.994 -42.824,-60.188c0.631,-12.62 6.205,-27.937 24.056,-44.016c35.609,-32.074 -2.678,-58.196 -2.678,-58.196c0,0 43.623,7.354 43.592,50.671c-0.017,23.586 -4.94,31.811 -15.33,44.792c-3.45,4.31 -14.707,14.091 -18.397,20.028c-6.561,10.557 -5.899,19.609 -3.969,27.428c1.93,7.818 15.55,19.481 15.55,19.481Z" style="fill:#3eb983;"/></g></g></svg>